<?xml version="1.0" encoding="UTF-8" standalone="yes"?>
<svg height="500" width="500" version="1.2" viewBox="0 0 500 500" baseProfile="tiny-ps" xmlns="http://www.w3.org/2000/svg">
  <title>Young Americans Coalition for Unity</title>
  <g transform="matrix(1.2666361,0,0,1.2666361,-48.247498,-64.808568)">
    <circle cx="306.68924" cy="248.50908" r="119.36" fill="#ec2228"/>
    <circle cx="164.23923" cy="248.56908" r="119.36" fill="#00a0d4"/>
    <path d="M 223.1575594293327 163.249078 H 390.22092057066726 A 119.36 119.36 0 0 1 414.52923068397575 197.349076 H 198.8492493160242 Z" fill="#f04e53"/>
    <path d="M 188.55327130290925 231.45908 H 424.8252086970907 A 119.36 119.36 0 0 1 424.82520898574114 265.559078 H 188.55327101425883 Z" fill="#f04e53"/>
    <path d="M 198.84924267433283 299.66907000000003 H 414.52923732566717 A 119.36 119.36 0 0 1 390.22093486033344 333.769068 H 223.15754513966652 Z" fill="#f04e53"/>
    <polygon points="257.04,104.68 196.32,152.04 217.61,226.04 153.81,182.92 90.01,226.04 111.3,152.04 50.57,104.68 127.53,102.07 153.81,29.68 180.08,102.07 " transform="translate(12.319235,111.48908)" fill="#33b3dd"/>
    <path d="m 187.31924,248.48908 a 119.21,119.21 0 0 0 48.17,95.82 119.38,119.38 0 0 0 -0.07,-191.58 119.19,119.19 0 0 0 -48.1,95.76 z" fill="#7555a3"/>
    <path d="m 130.98924,254.32908 v 23.43 h -17.77 v -23.62 l -29.740005,-42.5 h 18.840005 l 20.52,29.38 20.53,-29.38 h 17.44 z" fill="#fff"/>
    <path d="m 208.18924,263.62908 h -35.67 l -6.8,14.17 h -18.21 l 34.24,-66.12 h 17.57 l 34.35,66.12 h -18.68 z m -5.6,-11.62 -12.18,-25.31 -12.18,25.31 z" fill="#fff"/>
    <path d="m 236.52924,244.69908 c 0,-19.93 17.78,-34.2 41.7,-34.2 13.27,0 24.36,4.15 31.6,11.71 l -11.42,9.06 a 26.47,26.47 0 0 0 -19.3,-7.74 c -14.37,0 -24.58,8.68 -24.58,21.15 0,12.47 10.21,21.16 24.58,21.16 a 26.17,26.17 0 0 0 19.3,-7.84 l 11.42,9.07 c -7.25,7.66 -18.33,11.81 -31.72,11.81 -23.79,0.01 -41.58,-14.26 -41.58,-34.18 z" fill="#fff"/>
    <path d="m 320.46924,248.65908 v -37 h 17.77 v 36.43 c 0,12.57 6.37,17.76 17.12,17.76 10.75,0 17.12,-5.19 17.12,-17.76 v -36.46 h 17.55 v 37 c 0,19.46 -12.95,30.23 -34.78,30.23 -21.83,0 -34.78,-10.74 -34.78,-30.2 z" fill="#fff"/>
  </g>
</svg>